<?xml version="1.0" standalone="no"?>
<!DOCTYPE svg PUBLIC "-//W3C//DTD SVG 20010904//EN"
 "http://www.w3.org/TR/2001/REC-SVG-20010904/DTD/svg10.dtd">
<svg version="1.0" xmlns="http://www.w3.org/2000/svg"
 width="512.000000pt" height="512.000000pt" viewBox="0 0 512.000000 512.000000"
 preserveAspectRatio="xMidYMid meet">
<metadata>
Created by potrace 1.14, written by Peter Selinger 2001-2017
</metadata>
<g transform="translate(0.000000,512.000000) scale(0.100000,-0.100000)"
fill="#000000" stroke="none">
<path d="M1280 2560 l0 -2560 1280 0 1280 0 0 2560 0 2560 -1280 0 -1280 0 0
-2560z m1328 2230 c295 -20 474 -102 569 -262 64 -106 92 -314 62 -460 -32
-153 -140 -284 -296 -359 -50 -24 -92 -47 -92 -51 -1 -6 466 -774 535 -880
l24 -38 -152 0 -153 0 -248 425 -249 425 -204 0 -204 0 0 -425 0 -425 -130 0
-130 0 0 1030 0 1030 263 0 c144 0 326 -5 405 -10z m192 -2424 c328 -52 472
-171 500 -414 16 -148 -19 -286 -97 -372 -61 -68 -116 -104 -204 -134 -41 -14
-75 -28 -76 -33 -2 -4 27 -15 65 -24 225 -55 359 -193 380 -394 35 -328 -123
-552 -450 -637 -78 -20 -112 -21 -530 -25 l-448 -5 0 1033 0 1032 383 -6 c266
-4 411 -10 477 -21z"/>
<path d="M2200 4190 l0 -380 208 0 c293 0 401 28 490 124 60 65 85 140 86 261
1 126 -19 190 -81 256 -86 92 -199 119 -499 119 l-204 0 0 -380z"/>
<path d="M2333 2163 l-133 -4 0 -325 0 -326 278 5 c289 4 330 10 417 55 53 27
89 66 117 127 19 42 23 67 23 150 0 92 -2 104 -30 153 -75 137 -234 176 -672
165z"/>
<path d="M2353 1293 l-153 -4 0 -369 0 -370 268 0 c290 0 361 9 449 53 53 27
111 85 139 139 78 150 47 356 -66 452 -103 86 -242 108 -637 99z"/>
</g>
</svg>
