<?xml version="1.0" encoding="UTF-8" standalone="no"?>
<!-- Created with Inkscape (http://www.inkscape.org/) -->

<svg
   width="48.466942"
   height="48.466942"
   viewBox="0 0 12.823545 12.823545"
   version="1.1"
   id="svg1"
   inkscape:version="1.3.2 (091e20e, 2023-11-25, custom)"
   sodipodi:docname="favicon-b.svg"
   xmlns:inkscape="http://www.inkscape.org/namespaces/inkscape"
   xmlns:sodipodi="http://sodipodi.sourceforge.net/DTD/sodipodi-0.dtd"
   xmlns="http://www.w3.org/2000/svg"
   xmlns:svg="http://www.w3.org/2000/svg"
   xmlns:rdf="http://www.w3.org/1999/02/22-rdf-syntax-ns#"
   xmlns:cc="http://creativecommons.org/ns#"
   xmlns:dc="http://purl.org/dc/elements/1.1/">
  <title
     id="title2">RB Favicon Black on White</title>
  <sodipodi:namedview
     id="namedview1"
     pagecolor="#ffffff"
     bordercolor="#000000"
     borderopacity="0.25"
     inkscape:showpageshadow="2"
     inkscape:pageopacity="0.0"
     inkscape:pagecheckerboard="false"
     inkscape:deskcolor="#d1d1d1"
     inkscape:document-units="mm"
     inkscape:zoom="11.822492"
     inkscape:cx="47.240463"
     inkscape:cy="43.434159"
     inkscape:window-width="2560"
     inkscape:window-height="1369"
     inkscape:window-x="-8"
     inkscape:window-y="-8"
     inkscape:window-maximized="1"
     inkscape:current-layer="layer3" />
  <defs
     id="defs1" />
  <g
     inkscape:groupmode="layer"
     id="layer3"
     inkscape:label="Background"
     transform="translate(0.38940081,2.4564579)">
    <rect
       style="fill:#fdfffc;fill-opacity:1;stroke-width:0.366198"
       id="rect1"
       width="12.823545"
       height="12.823545"
       x="-0.38940081"
       y="-2.4564579" />
  </g>
  <g
     inkscape:label="Text"
     inkscape:groupmode="layer"
     id="layer1"
     transform="translate(0.06177245,0.06177375)">
    <path
       id="text1"
       style="font-style:normal;font-variant:normal;font-weight:900;font-stretch:normal;font-size:11.2889px;font-family:'Red Hat Display';-inkscape-font-specification:'Red Hat Display Heavy';fill:#0d0106;fill-opacity:1;stroke-width:0.264583"
       d="m 3.3646522,2.3946859 c -0.5418666,0 -1.0239379,0.1088599 -1.4453898,0.3271118 C 1.4978106,2.9325236 1.1707139,3.2299107 0.93741026,3.6137329 0.69658063,3.9900292 0.576192,4.4226597 0.576192,4.9118449 c 0,0.4967111 0.13524342,0.9408702 0.40617676,1.3322184 C 1.2533021,6.6354115 1.6106251,6.9327985 2.0546547,7.1359985 L 0.32762836,10.297046 H 2.4949379 L 3.9852862,7.4181518 h 1.4784627 v 2.8871622 h 4.1093099 c 0.5569192,0 1.0461592,-0.09785 1.4676112,-0.293522 0.421452,-0.1956741 0.748548,-0.4666777 0.981852,-0.8128703 0.233304,-0.3537185 0.34985,-0.7599656 0.34985,-1.219047 0,-0.3612445 -0.105018,-0.6927008 -0.315743,-0.9937378 -0.2032,-0.3010371 -0.48189,-0.5456572 -0.835608,-0.7338054 0.278459,-0.195674 0.496696,-0.4326084 0.65474,-0.7110677 0.16557,-0.2859852 0.248564,-0.5905412 0.248564,-0.9141561 0,-0.4365037 -0.116546,-0.8207269 -0.34985,-1.1518676 C 11.541172,3.1365734 11.217401,2.8732556 10.803475,2.6851074 10.397075,2.4969593 9.9226892,2.4029541 9.3808225,2.4029541 H 7.4057493 v -0.00827 z m 4.0410971,1.5999023 h 1.8510498 c 0.2859851,0 0.5119076,0.071465 0.677478,0.2144572 0.1655709,0.1354667 0.2480469,0.3239938 0.2480469,0.5648234 0,0.2333037 -0.08248,0.421314 -0.2480469,0.5643066 C 9.7687067,5.481168 9.5427842,5.5526326 9.2567991,5.5526326 H 7.4057493 Z M 3.545003,4.0540161 H 5.4637489 V 5.8378865 H 3.545003 c -0.301037,0 -0.5418143,-0.082993 -0.7224365,-0.2485636 C 2.6344183,5.4237525 2.5404132,5.2093587 2.5404132,4.9459513 c 0,-0.2634074 0.094005,-0.4778012 0.2821533,-0.6433716 C 3.0031887,4.1370094 3.243966,4.0540161 3.545003,4.0540161 Z m 3.8607463,2.9889648 h 2.0205485 c 0.301037,0 0.5379714,0.074791 0.7110682,0.2253093 0.180622,0.1505185 0.270784,0.3539004 0.270784,0.6097819 0,0.2558815 -0.09016,0.4592634 -0.270784,0.6097819 C 9.9642692,8.6383725 9.7273348,8.71368 9.4262978,8.71368 H 7.4057493 Z" />
  </g>
  <metadata
     id="metadata1">
    <rdf:RDF>
      <cc:Work
         rdf:about="">
        <dc:creator>
          <cc:Agent>
            <dc:title>Rasmus Båtman</dc:title>
          </cc:Agent>
        </dc:creator>
        <dc:title>RB Favicon Black on White</dc:title>
      </cc:Work>
    </rdf:RDF>
  </metadata>
</svg>
