<?xml version="1.0" standalone="no"?>
<!DOCTYPE svg PUBLIC "-//W3C//DTD SVG 20010904//EN"
 "http://www.w3.org/TR/2001/REC-SVG-20010904/DTD/svg10.dtd">
<svg version="1.0" xmlns="http://www.w3.org/2000/svg"
 width="700.000000pt" height="700.000000pt" viewBox="0 0 700.000000 700.000000"
 preserveAspectRatio="xMidYMid meet">
<metadata>
Created by potrace 1.14, written by Peter Selinger 2001-2017
</metadata>
<g transform="translate(0.000000,700.000000) scale(0.100000,-0.100000)"
fill="#000000" stroke="none">
<path d="M1666 5650 c-219 -26 -402 -79 -580 -169 -151 -77 -256 -153 -366
-267 -245 -253 -370 -566 -370 -924 0 -362 126 -666 385 -925 102 -102 257
-216 363 -264 28 -14 52 -28 52 -32 0 -4 -209 -391 -465 -859 -256 -468 -465
-853 -465 -856 0 -2 266 -3 590 -2 l591 3 403 780 404 780 404 0 403 0 3 -787
2 -788 1163 0 c701 0 1206 4 1272 10 675 62 1149 404 1289 930 54 200 55 422
5 595 -73 249 -287 506 -538 648 l-54 30 29 21 c232 169 404 436 450 696 19
110 14 313 -10 421 -96 432 -464 776 -968 904 -222 56 -166 54 -2115 59 -1055
3 -1831 1 -1877 -4z m3598 -884 c137 -39 242 -123 294 -234 24 -51 27 -68 27
-167 0 -92 -4 -120 -24 -170 -29 -72 -113 -160 -189 -199 -106 -54 -130 -56
-734 -56 l-558 0 0 426 0 426 563 -4 c492 -4 569 -7 621 -22z m-2244 -501 l0
-485 -562 0 c-676 0 -683 1 -832 98 -155 101 -230 284 -197 477 32 181 175
327 371 379 45 12 162 15 638 15 l582 1 0 -485z m2322 -1159 c201 -43 348
-192 366 -372 25 -250 -86 -420 -328 -500 -50 -17 -107 -19 -677 -22 l-623 -3
0 456 0 455 598 0 c475 0 611 -3 664 -14z"/>
</g>
</svg>
