<svg xmlns="http://www.w3.org/2000/svg" viewBox="0 0 12.045 7.911"><path d="M3.037 0c-.542 0-1.024.109-1.445.327a2.35 2.35 0 0 0-.982.892 2.353 2.353 0 0 0-.361 1.298c0 .497.135.941.406 1.332s.628.689 1.072.892L0 7.902h2.167l1.49-2.879h1.478V7.91h4.109c.557 0 1.046-.098 1.468-.294s.749-.467.982-.813c.233-.354.35-.76.35-1.219 0-.361-.105-.693-.316-.994a2.269 2.269 0 0 0-.836-.734 2.18 2.18 0 0 0 .655-.711c.166-.286.249-.591.249-.914a1.95 1.95 0 0 0-.35-1.152 2.3 2.3 0 0 0-.971-.79C10.069.101 9.594.007 9.052.007H7.078V0zm4.041 1.6h1.851c.286 0 .512.071.677.214.166.135.248.324.248.565 0 .233-.082.421-.248.564s-.391.214-.677.214H7.078zm-3.861.059h1.919v1.784H3.217c-.301 0-.542-.083-.722-.249-.188-.166-.282-.38-.282-.643s.094-.478.282-.643c.181-.166.421-.249.722-.249zm3.861 2.989h2.021c.301 0 .538.075.711.225.181.151.271.354.271.61s-.09.459-.271.61c-.173.151-.41.226-.711.226H7.078z" fill="#fdfffc"/></svg>